<svg id="Layer_1" data-name="Layer 1" xmlns="http://www.w3.org/2000/svg" viewBox="0 0 617.66 174.21"><defs><style>.cls-1{fill:#001871;}</style></defs><title>accelya-logo2</title><path class="cls-1" d="M137.46,101.22a49.56,49.56,0,1,0,30.09,88.94v9.65l19.47,0V150.78A49.62,49.62,0,0,0,137.46,101.22Zm30,49.56a30,30,0,1,1-30-30A30,30,0,0,1,167.45,150.78Z" transform="translate(-87.9 -68.19)"/><path class="cls-1" d="M498.65,174.2v-106H479.18v106c0,3.43-1.12,13.29,7.39,21.06,5.63,5.15,15.25,5.07,18.77,5.07h4.31V180.89h-4.31A6.69,6.69,0,0,1,498.65,174.2Z" transform="translate(-87.9 -68.19)"/><path class="cls-1" d="M578.19,151.31c0,.53,0,1.07,0,1.62l0,1.06h0c0,.34,0,2,0,8.44,0,11.68-11,18.14-18.59,18.14-10.6,0-18.53-9.29-18.53-17.59V101.22H521.61v62.1c0,17.27,15.65,36.59,36.59,36.59h1.41a40.38,40.38,0,0,0,18.57-4.77v10.4c-.34,11.38-9.83,17.34-18.58,17.52-11.94.24-22.42-16.79-22.42-16.79l-14.39,8.88,1,2.63c4.69,11.86,17.44,24.63,34.36,24.63h1.41c12.39,0,36.28-7.63,38-36.75V101.22H578.19Z" transform="translate(-87.9 -68.19)"/><path class="cls-1" d="M656,101.22a49.56,49.56,0,1,0,30.09,88.94v9.65l19.47,0V150.78A49.62,49.62,0,0,0,656,101.22Zm30,49.56a30,30,0,1,1-30-30A30,30,0,0,1,686,150.78Z" transform="translate(-87.9 -68.19)"/><path class="cls-1" d="M266.57,173.21a30,30,0,1,1-2.67-47.06l10-16.91a49.59,49.59,0,1,0,6.23,78.19l3.36-3.06-13.86-13.85Z" transform="translate(-87.9 -68.19)"/><path class="cls-1" d="M352.29,173.21a30,30,0,1,1-2.67-47.06l10-16.91a49.59,49.59,0,1,0,6.23,78.19l3.36-3.06-13.86-13.85Z" transform="translate(-87.9 -68.19)"/><path class="cls-1" d="M353.18,200.34" transform="translate(-87.9 -68.19)"/><path class="cls-1" d="M440.31,170.7A30.17,30.17,0,0,1,387.88,155h79v-4.33a49.44,49.44,0,1,0-98.88,0c0,6.71,1.79,14.81,3.79,19l.81,1.66a49.64,49.64,0,0,0,81.52,13.17Zm-23-52.23c10.77,0,23.66,5.21,28.67,20.85H388.67C393.51,123.69,406.57,118.48,417.34,118.48Zm-45.47,51.22.19.44C371.95,169.88,371.87,169.69,371.87,169.69Z" transform="translate(-87.9 -68.19)"/></svg>