<?xml version="1.0" encoding="UTF-8" standalone="no"?>
<!DOCTYPE svg PUBLIC "-//W3C//DTD SVG 1.1//EN" "http://www.w3.org/Graphics/SVG/1.1/DTD/svg11.dtd">
<svg width="100%" height="100%" viewBox="0 0 400 74" version="1.1" xmlns="http://www.w3.org/2000/svg" xmlns:xlink="http://www.w3.org/1999/xlink" xml:space="preserve" xmlns:serif="http://www.serif.com/" style="fill-rule:evenodd;clip-rule:evenodd;stroke-linejoin:round;stroke-miterlimit:2;">
    <g transform="matrix(1,0,0,1,-221.182,-260.995)">
        <g>
            <g transform="matrix(1,0,0,1,0,2.34375)">
                <path d="M405.595,283.949C405.595,270.467 396.75,260.22 378.522,260.22L341.85,260.22L341.85,331.083L359.108,331.083L359.108,275.535L378.63,275.535C385.857,275.535 388.444,279.635 388.444,284.38C388.444,289.234 385.748,293.225 378.521,293.225L361.803,293.225L385.532,331.083L405.163,331.083C405.163,331.083 388.983,305.628 389.092,305.628C399.124,303.256 405.595,296.245 405.595,283.949" style="fill:rgb(0,32,91);fill-rule:nonzero;"/>
            </g>
            <g transform="matrix(1,0,0,1,0,2.34375)">
                <rect x="312.944" y="260.22" width="17.258" height="70.864" style="fill:rgb(0,32,91);"/>
            </g>
            <g transform="matrix(1,0,0,1,0,2.34375)">
                <path d="M257.829,260.22L221.696,331.083L241.11,331.083L246.963,319.219L276.056,319.219L268.83,304.334L254.307,304.334L265.054,282.547L265.271,282.547L289.431,331.083L309.277,331.083L273.144,260.22L257.829,260.22Z" style="fill:rgb(0,32,91);fill-rule:nonzero;"/>
            </g>
            <g transform="matrix(1,0,0,1,0,2.34375)">
                <path d="M468.588,294.304C474.09,291.283 477.002,286.43 477.002,279.311C477.002,267.878 468.481,260.22 454.136,260.22L413.794,260.22L413.794,331.083L455.754,331.083C470.422,331.083 480.022,323.209 480.022,311.237C480.021,302.933 475.384,296.677 468.588,294.304M431.054,275.212L454.136,275.212C457.588,275.212 460.284,277.908 460.284,281.468C460.284,285.028 457.588,287.724 454.027,287.724L431.053,287.724L431.053,275.212L431.054,275.212ZM454.566,316.198L431.053,316.198L431.053,301.745L454.566,301.745C458.773,301.745 462.009,304.766 462.009,308.864C462.01,313.07 458.773,316.198 454.566,316.198" style="fill:rgb(0,32,91);fill-rule:nonzero;"/>
            </g>
            <g transform="matrix(1,0,0,1,0,2.34375)">
                <path d="M534.49,299.804C534.49,310.56 529.528,316.522 519.714,316.522C510.007,316.522 505.045,310.56 505.045,299.804L505.045,260.22L487.357,260.22L487.357,298.51C487.357,320.406 498.898,332.594 519.714,332.594C540.53,332.594 552.179,320.406 552.179,298.51L552.179,260.22L534.49,260.22L534.49,299.804Z" style="fill:rgb(0,32,91);fill-rule:nonzero;"/>
            </g>
            <g transform="matrix(1,0,0,1,0,2.34375)">
                <path d="M598.234,288.371C581.851,284.382 578.281,284.001 578.281,279.31C578.281,275.681 582.379,273.917 589.282,273.917C598.45,273.917 608.213,276.217 613.766,279.634L619.267,265.181C612.149,261.406 601.686,258.709 589.498,258.709C571.269,258.709 561.022,267.77 561.022,279.957C561.022,293.071 568.676,298.399 586.261,302.176C599.951,305.194 602.87,307.077 602.87,310.912C602.87,315.078 599.096,316.953 591.654,316.953C580.868,316.953 571.106,314.333 563.287,310.05L558.002,325.15C566.523,329.68 579.25,332.593 592.085,332.593C609.99,332.593 620.667,324.287 620.667,310.373C620.669,299.21 613.447,292.039 598.234,288.371" style="fill:rgb(0,32,91);fill-rule:nonzero;"/>
            </g>
        </g>
    </g>
</svg>
