<?xml version="1.0" encoding="UTF-8" standalone="no"?>
<!-- Created with Inkscape (http://www.inkscape.org/) -->

<svg
   xmlns:dc="http://purl.org/dc/elements/1.1/"
   xmlns:cc="http://creativecommons.org/ns#"
   xmlns:rdf="http://www.w3.org/1999/02/22-rdf-syntax-ns#"
   xmlns:svg="http://www.w3.org/2000/svg"
   xmlns="http://www.w3.org/2000/svg"
   version="1.1"
   width="284.09"
   height="77.360001"
   id="svg5275">
  <defs
     id="defs5277">
    <clipPath
       id="clipPath874">
      <path
         d="m 27,27 1353.599,0 0,939.6 L 27,966.6 27,27 z"
         id="path876" />
    </clipPath>
  </defs>
  <metadata
     id="metadata5280">
    <rdf:RDF>
      <cc:Work
         rdf:about="">
        <dc:format>image/svg+xml</dc:format>
        <dc:type
           rdf:resource="http://purl.org/dc/dcmitype/StillImage" />
        <dc:title></dc:title>
      </cc:Work>
    </rdf:RDF>
  </metadata>
  <g
     transform="translate(0,-975.0021)"
     id="layer1">
    <g
       transform="matrix(1.25,0,0,-1.25,-105.9329,1209.4024)"
       id="g870"
       style="fill:#0000ff">
      <g
         clip-path="url(#clipPath874)"
         id="g872"
         style="fill:#0000ff">
        <g
           transform="translate(152.12037,128.09225)"
           id="g878"
           style="fill:#800000">
          <path
             d="m 0,0 -20.312,0 -12.333,21.507 20.309,0 L 0,0 z"
             id="path880"
             style="fill:#800000;fill-opacity:1;fill-rule:nonzero;stroke:none" />
        </g>
        <g
           transform="translate(119.40257,184.69385)"
           id="g882"
           style="fill:#800000">
          <path
             d="m 0,0 10.185,-17.516 -22.498,-39.086 -20.273,0 L 0,0 z"
             id="path884"
             style="fill:#800000;fill-opacity:1;fill-rule:nonzero;stroke:none" />
        </g>
        <g
           transform="translate(164.72387,157.00335)"
           id="g886"
           style="fill:#800000">
          <path
             d="M 0,0 -3.423,6.558 -7.014,0 0,0 z m 1.413,-2.74 -9.876,0 -2.568,-4.664 -3.763,0 11.438,20.499 11.022,-20.499 -3.813,0 -2.44,4.664 z"
             id="path888"
             style="fill:#800000;fill-opacity:1;fill-rule:nonzero;stroke:none" />
        </g>
        <g
           transform="translate(180.11447,159.66545)"
           id="g890"
           style="fill:#800000">
          <path
             d="m 0,0 -6.367,9.191 3.969,0 4.419,-6.505 4.621,6.505 4,0 L 3.997,0 l 6.985,-10.066 -3.907,0 -5.108,7.38 -5.28,-7.38 -3.943,0 L 0,0 z"
             id="path892"
             style="fill:#800000;fill-opacity:1;fill-rule:nonzero;stroke:none" />
        </g>
        <g
           transform="translate(197.70237,149.59905)"
           id="g894"
           style="fill:#800000">
          <path
             d="m 0,0 -3.479,0 0,19.258 3.478,0 L 0,0 z"
             id="path896"
             style="fill:#800000;fill-opacity:1;fill-rule:nonzero;stroke:none" />
        </g>
        <g
           transform="translate(215.09987,166.02295)"
           id="g898"
           style="fill:#800000">
          <path
             d="m 0,0 -2.841,-1.409 c -0.53,0.765 -1.026,1.264 -1.513,1.499 -0.498,0.268 -1.136,0.399 -1.928,0.399 -0.96,0 -1.758,-0.23 -2.41,-0.696 -0.635,-0.444 -0.954,-1.005 -0.953,-1.684 0,-0.953 0.841,-1.705 2.509,-2.274 L -4.83,-4.96 c 1.874,-0.614 3.243,-1.401 4.12,-2.304 0.88,-0.918 1.298,-2.031 1.298,-3.368 0,-1.765 -0.703,-3.241 -2.128,-4.379 -1.417,-1.177 -3.201,-1.758 -5.314,-1.758 -2.005,0 -3.664,0.492 -4.962,1.495 -1.298,1.005 -2.089,2.393 -2.416,4.18 l 3.529,0.652 c 0.168,-1.139 0.435,-1.905 0.846,-2.343 0.711,-0.826 1.773,-1.249 3.142,-1.249 1.095,0 1.989,0.294 2.704,0.916 0.724,0.601 1.077,1.376 1.077,2.304 0,0.372 -0.054,0.72 -0.204,1.02 -0.1,0.326 -0.298,0.603 -0.559,0.867 -0.254,0.248 -0.613,0.515 -1.029,0.738 -0.416,0.235 -0.914,0.434 -1.492,0.663 l -2.227,0.771 c -3.178,1.11 -4.742,2.738 -4.742,4.888 0,1.45 0.666,2.644 1.986,3.615 1.318,0.988 2.97,1.491 4.945,1.489 C -3.598,3.237 -1.498,2.157 0,0"
             id="path900"
             style="fill:#800000;fill-opacity:1;fill-rule:nonzero;stroke:none" />
        </g>
        <g
           transform="translate(232.83417,152.34125)"
           id="g902"
           style="fill:#800000">
          <path
             d="m 0,0 2.157,0 c 1.589,0 2.747,0.253 3.486,0.76 0.772,0.565 1.17,1.27 1.17,2.117 0,0.838 -0.398,1.539 -1.137,2.12 C 4.945,5.523 3.651,5.821 1.765,5.821 L 0,5.821 0,0 z m 0,8.25 1.104,0 c 1.292,0 2.251,0.235 2.848,0.715 0.596,0.481 0.906,1.183 0.906,2.103 0,0.92 -0.31,1.612 -0.924,2.062 -0.628,0.485 -1.519,0.721 -2.7,0.721 L 0,13.851 0,8.25 z m -3.482,-10.992 0,19.258 3.482,0 c 1.545,0 2.775,-0.086 3.694,-0.291 C 4.619,16.032 5.399,15.679 6.033,15.226 6.688,14.715 7.188,14.11 7.575,13.362 7.975,12.643 8.169,11.885 8.169,11.13 8.169,9.751 7.526,8.585 6.259,7.626 7.497,7.279 8.453,6.667 9.162,5.792 9.889,4.931 10.243,3.935 10.243,2.764 10.243,1.272 9.609,0 8.326,-1.047 7.563,-1.689 6.701,-2.14 5.744,-2.378 4.693,-2.625 3.385,-2.742 1.802,-2.742 l -5.284,0 z"
             id="path904"
             style="fill:#800000;fill-opacity:1;fill-rule:nonzero;stroke:none" />
        </g>
        <g
           transform="translate(258.06757,157.00335)"
           id="g906"
           style="fill:#800000">
          <path
             d="M 0,0 -3.436,6.558 -7.042,0 0,0 z m 1.417,-2.74 -9.89,0 -2.571,-4.664 -3.765,0 11.421,20.499 11.041,-20.499 -3.832,0 -2.404,4.664 z"
             id="path908"
             style="fill:#800000;fill-opacity:1;fill-rule:nonzero;stroke:none" />
        </g>
        <g
           transform="translate(268.00317,149.59905)"
           id="g910"
           style="fill:#800000">
          <path
             d="m 0,0 0,20.597 16.837,-14.725 0,13.386 3.488,0 0,-20.433 L 3.484,13.5 3.484,0 0,0 z"
             id="path912"
             style="fill:#800000;fill-opacity:1;fill-rule:nonzero;stroke:none" />
        </g>
        <g
           transform="translate(296.13697,161.16845)"
           id="g914"
           style="fill:#800000">
          <path
             d="m 0,0 8.998,7.688 4.641,0 -10.435,-8.725 10.507,-10.532 -4.671,0 L 0.726,-2.998 0,-3.6 l 0,-7.969 -3.493,0 0,19.257 L 0,7.688 0,0 z"
             id="path916"
             style="fill:#800000;fill-opacity:1;fill-rule:nonzero;stroke:none" />
        </g>
        <g
           transform="translate(165.1929,745.4365)"
           id="g918"
           style="fill:#0000ff" />
        <g
           transform="translate(176.3745,741.2793)"
           id="g922"
           style="fill:#0000ff" />
        <g
           transform="translate(191.0835,738.4111)"
           id="g926"
           style="fill:#0000ff" />
        <g
           transform="translate(199.6548,737.5127)"
           id="g930"
           style="fill:#0000ff" />
        <g
           transform="translate(209.2886,741.2793)"
           id="g934"
           style="fill:#0000ff" />
        <g
           transform="translate(218.3384,738.834)"
           id="g938"
           style="fill:#0000ff" />
        <g
           transform="translate(248.6567,744.8008)"
           id="g946"
           style="fill:#0000ff" />
        <g
           transform="translate(270.3052,738.4111)"
           id="g950"
           style="fill:#0000ff" />
        <g
           transform="translate(281.4688,741.8018)"
           id="g954"
           style="fill:#0000ff" />
        <g
           transform="translate(287.6128,736.2432)"
           id="g958"
           style="fill:#0000ff" />
        <g
           transform="translate(293.7358,736.2432)"
           id="g962"
           style="fill:#0000ff" />
        <g
           transform="translate(301.3027,735.998)"
           id="g966"
           style="fill:#0000ff" />
        <g
           transform="translate(477.728,396.7266)"
           id="g970"
           style="fill:#0000ff" />
        <g
           transform="translate(484.7734,402.8027)"
           id="g974"
           style="fill:#0000ff" />
        <g
           transform="translate(495.3481,402.8027)"
           id="g978"
           style="fill:#0000ff" />
        <g
           transform="translate(507.0415,402.4258)"
           id="g982"
           style="fill:#0000ff" />
        <g
           transform="translate(517.2656,396.7266)"
           id="g986"
           style="fill:#0000ff" />
        <g
           transform="translate(524.3105,402.4258)"
           id="g990"
           style="fill:#0000ff" />
        <g
           transform="translate(535.8149,398.2354)"
           id="g994"
           style="fill:#0000ff" />
        <g
           transform="translate(542.0386,402.4258)"
           id="g998"
           style="fill:#0000ff" />
        <g
           transform="translate(550.8892,398.1543)"
           id="g1002"
           style="fill:#0000ff" />
        <g
           transform="translate(563.6606,394.7861)"
           id="g1006"
           style="fill:#0000ff" />
        <g
           transform="translate(569.1421,398.2354)"
           id="g1010"
           style="fill:#0000ff" />
        <g
           transform="translate(577.0493,401.334)"
           id="g1014"
           style="fill:#0000ff" />
        <g
           transform="translate(591.8413,392.792)"
           id="g1018"
           style="fill:#0000ff" />
        <g
           transform="translate(599.4927,397.5215)"
           id="g1022"
           style="fill:#0000ff" />
        <g
           transform="translate(605.1235,401.334)"
           id="g1026"
           style="fill:#0000ff" />
        <g
           transform="translate(613.2056,401.334)"
           id="g1030"
           style="fill:#0000ff" />
        <g
           transform="translate(626.3535,401.334)"
           id="g1036"
           style="fill:#0000ff" />
        <g
           transform="translate(637.3193,392.792)"
           id="g1040"
           style="fill:#0000ff" />
      </g>
    </g>
  </g>
</svg>
