<?xml version="1.0" encoding="UTF-8" standalone="no"?>
<!-- Created with Inkscape (http://www.inkscape.org/) -->
<svg
   xmlns:svg="http://www.w3.org/2000/svg"
   xmlns="http://www.w3.org/2000/svg"
   version="1.0"
   width="800"
   height="144.748"
   viewBox="0 0 800 144.748"
   id="Layer_1"
   xml:space="preserve"><defs
   id="defs20" />
<polyline
   points="435.229,135.009 538.465,135.009 538.465,122.399 452.927,122.399 452.927,82.049 517.176,82.049 517.176,69.29   452.927,69.29 452.927,32.115 538.465,32.115 538.465,19.551 435.229,19.551 435.229,135.009 "
   id="polyline3" />
<polyline
   points="488.878,0.887 474.901,16.589 518.778,0.887 488.878,0.887 "
   id="polyline5" />
<polyline
   points="711.773,122.399 711.773,19.551 695.637,19.551 695.637,135.009 800,135.009 800,122.399 711.773,122.399 "
   id="polyline7" />
<path
   d="M 605.359,19.551 L 546.652,135.009 L 566.496,135.009 L 581.515,105.125 L 651.925,105.125 L 667.072,135.009 L 686.711,135.009 L 627.957,19.551 L 605.359,19.551 M 588.946,90.653 L 616.61,35.505 L 644.598,90.653 L 588.946,90.653 z "
   id="path9" />
<path
   d="M 379.21,86.73 C 405.661,79.672 408.231,59.991 408.097,52.955 C 406.518,32.329 392.621,19.551 367.65,19.551 L 294.88,19.551 L 294.88,135.009 L 311.469,135.009 L 311.469,86.576 L 358.844,86.576 L 393.697,135.009 L 414.606,135.009 C 414.605,135.009 389.524,102.413 379.21,86.73 M 365.385,72.934 L 311.469,72.934 L 311.469,33.217 L 367.264,33.217 C 380.11,33.217 387.336,39.214 389.939,46.832 C 391.661,52.054 390.557,58.909 387.708,63.576 C 383.045,71.292 374.187,72.934 365.385,72.934 z "
   id="path11" />
<path
   d="M 195.188,0 C 148.36,0 116.443,33.017 116.443,72.979 C 116.443,115.049 151.7,144.748 195.188,144.748 C 238.647,144.748 273.89,115.473 273.89,72.979 C 273.89,33.017 241.578,0 195.188,0 M 194.626,130.416 C 162.228,130.416 135.534,104.381 135.534,73.018 C 135.534,41.698 160.968,14.416 195.882,14.416 C 229.931,14.416 254.96,41.698 254.96,73.018 C 254.96,104.38 227.01,130.416 194.626,130.416 z "
   id="path13" />
<polyline
   points="74.663,60.396 86.633,60.396 108.36,19.551 90.876,19.551 74.663,60.396 "
   id="polyline15" />
<polyline
   points="16.145,122.399 16.145,19.551 0,19.551 0,135.009 104.359,135.009 104.359,122.399 16.145,122.399 "
   id="polyline17" />
</svg>