<?xml version="1.0" encoding="utf-8"?>
<!-- Generator: Adobe Illustrator 13.0.0, SVG Export Plug-In . SVG Version: 6.00 Build 14948)  -->
<!DOCTYPE svg PUBLIC "-//W3C//DTD SVG 1.1//EN" "http://www.w3.org/Graphics/SVG/1.1/DTD/svg11.dtd">
<svg version="1.1" id="Layer_1" xmlns="http://www.w3.org/2000/svg" xmlns:xlink="http://www.w3.org/1999/xlink" x="0px" y="0px"
	 width="162.895px" height="127.452px" viewBox="0 0 162.895 127.452" enable-background="new 0 0 162.895 127.452"
	 xml:space="preserve">
<g>
	<g>
		<g>
			<path fill="#E1002A" d="M23.969,93.54c-4.53-2.118-8.25-3.829-8.25-7.291c0-2.646,2.117-4.571,6.3-4.571
				c1.539,0,2.797,0.182,4.097,0.42c0.68,0.117,1.406,0.217,2.005,0.217c3.653,0,5.715-2.178,7.086-6.312l0.567-1.688
				c-0.583-0.238-6.552-2.859-14.335-2.859c-12.382,0-18.918,7.941-18.914,16.179c0,4.157,1.301,7.167,3.338,9.54
				c2.624,3.051,6.366,5.048,9.867,6.755c5.101,2.503,9.705,4.353,9.705,8.063c0.003,3.291-3.399,5.164-7.947,5.164
				c-6.231,0-11.676-3.562-12.372-3.991L0,122.755c0.91,0.514,7.499,4.697,18.343,4.697c11.555-0.008,20.305-6.632,20.305-16.826
				C38.647,100.483,30.537,96.723,23.969,93.54z"/>
			<path fill="#E1002A" d="M69.165,98.276l20.961-25.7H75.191L58.473,94.754h-0.25V72.576H45.914l0.003,54.441h0.732
				c5.322,0,11.657-2.462,11.657-11.353v-12.499h0.25l17.042,23.174h15.665L69.165,98.276z"/>
		</g>
		<g>
			<path fill="#E1002A" d="M90.824,14.26c-4.334,0.818-10.76,4.752-10.739,11.709c0.017,6.317,5.182,10.146,5.198,18.424
				c0.025,6.228-3.407,10.421-7.119,12.746c1.5-0.133,3.143-0.219,4.951-0.223c3.792-0.01,6.078,0.352,6.22,0.375l19.443-23.859
				C103.378,25.348,97.072,19.075,90.824,14.26z"/>
			<path fill="#E1002A" d="M107.156,78.69c2.451-3.81,2.758-9.882,2.966-16.067c0.229-5.769,1.433-10.11,9.151-10.137
				c1.71-0.006,3.339,0.229,6.289,0.221c11.306-0.05,18.688-3.943,23.28-6.498c-9.382-5.982-23.076-12.09-40.065-12.777
				c-1.107,3.123-9.717,27.063-10.368,28.995c0.098,0.116,1.606,1.806,3.489,5.102C104.676,72.056,106.167,75.891,107.156,78.69z"/>
		</g>
	</g>
	<g>
		<path fill="#EE7602" d="M66.089,59.136c-0.983,0.006-1.472-0.647-1.605-1.78c-0.125-1.125-4.988-45.612-5.712-52.345
			c-0.105-0.983-0.349-2.788-0.352-3.431C58.418,0.543,59.093,0.002,59.889,0c2.304-0.009,14.86,2.932,28.185,12.271
			c-3.839,1.083-10.784,5.076-10.752,13.344c0.025,7.318,5.265,11.346,5.292,18.688C82.654,56.243,68.931,59.131,66.089,59.136z"/>
		<path fill="#EE7602" d="M108.273,81.865c0.209,0.554,0.406,1.02,0.604,1.346c0.306,0.52,0.705,0.756,1.195,0.754
			c0.31-0.004,0.69-0.107,1.11-0.297c1.027-0.472,41.626-19.372,47.749-22.197c0.888-0.426,2.57-1.178,3.125-1.503
			c0.575-0.327,0.838-0.806,0.838-1.292c-0.002-0.272-0.082-0.547-0.236-0.797c-0.765-1.238-4.693-5.407-11.26-9.963
			c-5.215,2.871-13.357,7.311-25.469,7.36c-2.968,0.003-3.64-0.196-5.667-0.188c-5.913,0.021-7.389,2.55-7.605,7.733
			c-0.036,0.979-0.053,2.297-0.11,3.742C112.36,71.197,111.813,77.588,108.273,81.865z"/>
	</g>
</g>
</svg>
